<?xml version="1.0" encoding="UTF-8" standalone="no"?>
<svg width="739px" height="1171px" viewBox="0 0 739 1171" version="1.1" xmlns="http://www.w3.org/2000/svg" xmlns:xlink="http://www.w3.org/1999/xlink">
    <!-- Generator: Sketch 3.6.1 (26313) - http://www.bohemiancoding.com/sketch -->
    <title>logo</title>
    <desc>Created with Sketch.</desc>
    <defs></defs>
    <g id="Page-1" stroke="none" stroke-width="1" fill="none" fill-rule="evenodd">
        <g id="logo">
            <g id="Logo-Copy" transform="translate(36.000000, 85.000000)">
                <path d="M116.844637,913.144048 L77.6081103,913.117683 L77.6212416,886.78611 C77.6278073,879.140396 77.2141692,874.348643 76.3803274,872.456988 C75.5399198,870.558742 73.688397,869.609619 70.8257588,869.603028 C67.602008,869.603028 65.5469489,870.756476 64.6802787,873.056781 C63.800477,875.370269 63.3671419,880.366347 63.3605762,888.025243 L63.3146164,958.392171 C63.3080507,965.754466 63.7413859,970.55281 64.6080561,972.800386 C65.4747264,975.047962 67.4378659,976.168455 70.4777776,976.168455 C73.3995069,976.175046 75.3101209,975.054553 76.2161853,972.806977 C77.115684,970.55281 77.5687162,965.273313 77.5752819,956.948713 L77.5884132,937.913523 L116.82494,937.939888 L116.82494,943.838951 C116.811809,959.519255 115.708774,970.638495 113.496139,977.196671 C111.283503,983.754848 106.398634,989.502315 98.8480977,994.425891 C91.2975612,999.356058 81.9874214,1001.82114 70.9308097,1001.81455 C59.4342972,1001.80796 49.9600153,999.705388 42.5079641,995.520019 C35.0493472,991.347833 30.1119529,985.547636 27.7023469,978.158977 C25.2796095,970.770317 24.0715237,959.651077 24.084655,944.794665 L24.1109178,900.541803 C24.1174835,889.626888 24.5048588,881.440701 25.2533468,875.989835 C26.0018347,870.525786 28.2276016,865.272654 31.9240816,860.223847 C35.6271274,855.175039 40.7483608,851.200586 47.3140447,848.300488 C53.8665973,845.406981 61.4040024,843.970114 69.9131287,843.970114 C81.4752981,843.983297 91.0086711,846.21769 98.5263792,850.712843 C106.037522,855.207995 110.974916,860.803866 113.331996,867.493866 C115.689077,874.190456 116.864334,884.617627 116.851203,898.749015 L116.844637,913.144048 Z" id="Fill-2" fill="#FFFFFF"></path>
                <path d="M181.361017,886.147429 C181.367583,879.094917 180.980207,874.593174 180.205457,872.622426 C179.430706,870.664859 177.828679,869.676189 175.405942,869.676189 C173.357448,869.676189 171.78825,870.460534 170.698346,872.055588 C169.615009,873.644051 169.063491,878.336937 169.056925,886.140838 L169.010966,956.870279 C169.0044,965.66944 169.358947,971.093942 170.074607,973.156966 C170.7837,975.206809 172.451384,976.241616 175.057961,976.241616 C177.730194,976.241616 179.437272,975.061804 180.18576,972.695587 C180.934248,970.32278 181.308492,964.68077 181.315057,955.756377 L181.361017,886.147429 Z M220.564716,935.950025 C220.551584,951.168949 220.190472,961.94545 219.481378,968.279529 C218.759153,974.607016 216.513689,980.39403 212.744986,985.620798 C208.989415,990.867339 203.90101,994.881339 197.5126,997.68257 C191.097926,1000.4838 183.645875,1001.88771 175.136749,1001.88112 C167.060958,1001.88112 159.805877,1000.54312 153.371507,997.893486 C146.943702,995.23726 141.769943,991.256216 137.863361,985.950354 C133.950214,980.644493 131.625962,974.870661 130.884039,968.642041 C130.142117,962.400239 129.774439,951.485323 129.78757,935.884113 L129.800701,909.967781 C129.813833,894.748857 130.181511,883.972355 130.897171,877.651459 C131.61283,871.317381 133.858294,865.536958 137.620431,860.290417 C141.382568,855.063649 146.464407,851.029876 152.865949,848.228645 C159.267491,845.427414 166.726108,844.036685 175.2418,844.043276 C183.317591,844.049867 190.572672,845.368093 196.993911,848.030911 C203.428281,850.680546 208.60204,854.66159 212.515187,859.967452 C216.421769,865.266722 218.746021,871.040554 219.481378,877.288947 C220.229866,883.517567 220.590979,894.445665 220.577847,910.027101 L220.564716,935.950025 Z" id="Fill-4" fill="#FFFFFF"></path>
                <path d="M356.329928,847.336865 L356.231442,998.820858 L321.93231,998.801085 L321.952007,896.539667 L308.229727,998.787903 L283.903868,998.77472 L269.57098,898.839972 L269.459364,998.761538 L235.153665,998.741765 L235.258716,847.257771 L286.037716,847.290727 C287.534692,856.406263 289.077627,867.136626 290.673089,879.494999 L296.214526,918.039941 L305.281735,847.303909 L356.329928,847.336865 Z" id="Fill-6" fill="#FFFFFF"></path>
                <path d="M493.152215,847.428481 L493.053729,998.912475 L458.748031,998.892702 L458.767728,896.631284 L445.045449,998.879519 L420.71959,998.866337 L406.393268,898.931589 L406.281651,998.853155 L371.975952,998.833381 L372.074438,847.349388 L422.853437,847.382344 C424.350413,856.497879 425.899914,867.228243 427.48881,879.586616 L433.030247,918.131558 L442.097457,847.395526 L493.152215,847.428481 Z" id="Fill-8" fill="#FFFFFF"></path>
                <path d="M548.140474,847.465392 L548.041989,998.949385 L508.79233,998.923021 L508.897381,847.439027 L548.140474,847.465392 Z" id="Fill-10" fill="#FFFFFF"></path>
                <path d="M642.922687,847.528667 L642.90299,877.841284 L619.607943,877.828102 L619.529155,998.999478 L580.279497,998.973113 L580.358285,877.801737 L557.155158,877.788555 L557.174855,847.469346 L642.922687,847.528667 Z" id="Fill-12" fill="#FFFFFF"></path>
                <path d="M466.349123,642.005298 C584.150624,590.396732 667.344405,472.389099 667.436324,335.108996 C667.561072,150.175005 518.316511,0.154243244 334.096552,0.0356028624 C149.876593,-0.0896286513 0.441627275,149.726808 0.31687928,334.660799 C0.244656757,443.526531 51.9888117,540.21185 132.103287,601.417105 L304.550975,340.039162 C308.359071,334.271922 316.178801,332.676868 321.923774,336.499724 C327.668748,340.31599 329.257643,348.166029 325.449547,353.933269 L110.384004,679.904308 C109.674911,680.985254 108.788543,681.868466 107.829953,682.646219 L17.3416977,824.375337 L642.046825,824.790578 L642.165007,645.749061 L457.669289,644.905396 L466.349123,642.005298 Z" id="Fill-14" fill="#3FD2E1"></path>
            </g>
        </g>
    </g>
</svg>